<svg width="37" height="37" viewBox="0 0 37 37" fill="none" xmlns="http://www.w3.org/2000/svg">
<path d="M29.75 15.6875V31.8594C29.75 32.3211 29.6591 32.7782 29.4824 33.2047C29.3057 33.6313 29.0468 34.0188 28.7203 34.3453C28.3938 34.6718 28.0063 34.9307 27.5797 35.1074C27.1532 35.2841 26.6961 35.375 26.2344 35.375H5.14062C4.20822 35.375 3.31401 35.0046 2.6547 34.3453C1.9954 33.686 1.625 32.7918 1.625 31.8594V10.7656C1.625 9.83322 1.9954 8.93901 2.6547 8.2797C3.31401 7.6204 4.20822 7.25 5.14062 7.25H19.8605" stroke="#4ECB71" stroke-width="2.1875" stroke-linecap="round" stroke-linejoin="round"/>
<path d="M36.4245 0.680202C36.2961 0.539085 36.1404 0.425473 35.9668 0.346231C35.7932 0.266988 35.6054 0.223761 35.4146 0.21916C35.2239 0.21456 35.0342 0.248682 34.857 0.319465C34.6798 0.390248 34.5188 0.496222 34.3837 0.630983L33.2965 1.71292C33.1647 1.84476 33.0907 2.02354 33.0907 2.20994C33.0907 2.39634 33.1647 2.57511 33.2965 2.70696L34.2932 3.70188C34.3585 3.76752 34.4362 3.8196 34.5217 3.85514C34.6072 3.89068 34.6989 3.90898 34.7915 3.90898C34.8841 3.90898 34.9758 3.89068 35.0613 3.85514C35.1469 3.8196 35.2245 3.76752 35.2899 3.70188L36.3498 2.64719C36.8859 2.11194 36.936 1.24006 36.4245 0.680202ZM31.0983 3.91018L15.2323 19.7481C15.1361 19.8439 15.0662 19.9628 15.0293 20.0935L14.2954 22.2793C14.2778 22.3386 14.2766 22.4016 14.2918 22.4615C14.307 22.5215 14.3382 22.5762 14.3819 22.62C14.4256 22.6637 14.4804 22.6949 14.5403 22.7101C14.6003 22.7253 14.6633 22.7241 14.7226 22.7065L16.9067 21.9726C17.0373 21.9357 17.1563 21.8658 17.2521 21.7696L33.0899 5.90178C33.2365 5.75369 33.3187 5.55377 33.3187 5.34544C33.3187 5.1371 33.2365 4.93718 33.0899 4.78909L32.2154 3.91018C32.0672 3.76232 31.8663 3.67929 31.6569 3.67929C31.4475 3.67929 31.2466 3.76232 31.0983 3.91018Z" fill="#4ECB71"/>
</svg>
