<svg width="200" height="168" viewBox="0 0 200 168" fill="none" xmlns="http://www.w3.org/2000/svg">
<path d="M188 0H12C8.8174 0 5.76516 1.26428 3.51472 3.51472C1.26428 5.76515 0 8.8174 0 12V156C0 159.183 1.26428 162.235 3.51472 164.485C5.76516 166.736 8.8174 168 12 168H188C191.183 168 194.235 166.736 196.485 164.485C198.736 162.235 200 159.183 200 156V12C200 8.8174 198.736 5.76515 196.485 3.51472C194.235 1.26428 191.183 0 188 0ZM12 8H188C189.061 8 190.078 8.42143 190.828 9.17157C191.579 9.92172 192 10.9391 192 12V124.4L159.11 91.51C157.995 90.3913 156.67 89.5036 155.212 88.898C153.753 88.2923 152.189 87.9805 150.61 87.9805C149.031 87.9805 147.467 88.2923 146.008 88.898C144.55 89.5036 143.225 90.3913 142.11 91.51L119.28 114.34L72.46 67.51C71.3452 66.3913 70.0204 65.5036 68.5618 64.898C67.1032 64.2923 65.5394 63.9805 63.96 63.9805C62.3806 63.9805 60.8168 64.2923 59.3582 64.898C57.8996 65.5036 56.5748 66.3913 55.46 67.51L8 115V12C8 10.9391 8.42143 9.92172 9.17157 9.17157C9.92172 8.42143 10.9391 8 12 8ZM8 156V126.34L61.17 73.17C61.5415 72.7981 61.9826 72.5031 62.4682 72.3018C62.9538 72.1005 63.4743 71.9969 64 71.9969C64.5257 71.9969 65.0462 72.1005 65.5318 72.3018C66.0174 72.5031 66.4585 72.7981 66.83 73.17L153.66 160H12C10.9391 160 9.92172 159.579 9.17157 158.828C8.42143 158.078 8 157.061 8 156ZM188 160H165L125 120L147.83 97.17C148.201 96.7981 148.643 96.5031 149.128 96.3018C149.614 96.1005 150.134 95.9969 150.66 95.9969C151.186 95.9969 151.706 96.1005 152.192 96.3018C152.677 96.5031 153.119 96.7981 153.49 97.17L192 135.71V156C192 157.061 191.579 158.078 190.828 158.828C190.078 159.579 189.061 160 188 160ZM120 56C120 54.4177 120.469 52.871 121.348 51.5554C122.227 50.2398 123.477 49.2145 124.939 48.609C126.4 48.0035 128.009 47.845 129.561 48.1537C131.113 48.4624 132.538 49.2243 133.657 50.3431C134.776 51.462 135.538 52.8874 135.846 54.4393C136.155 55.9911 135.997 57.5997 135.391 59.0615C134.786 60.5233 133.76 61.7727 132.445 62.6518C131.129 63.5308 129.582 64 128 64C125.878 64 123.843 63.1571 122.343 61.6569C120.843 60.1566 120 58.1217 120 56Z" fill="black"/>
</svg>
