<svg width="214" height="79" viewBox="0 0 214 79" fill="none" xmlns="http://www.w3.org/2000/svg">
<path d="M119.8 34L118 31H141.7L143.5 34H136.42V42.4H128.92C127.28 42.4 125.82 42.9 124.54 43.9C123.26 44.9 122.62 46.2 122.62 47.8C122.62 49.48 123.32 50.82 124.72 51.82C126 52.74 127.5 53.2 129.22 53.2C130.18 53.2 131.08 52.9 131.92 52.3C131.32 51.62 131.02 50.62 131.02 49.3C131.02 48.34 131.82 47.84 133.42 47.8C134.38 47.76 135.26 48.26 136.06 49.3C136.86 50.3 137.28 51.3 137.32 52.3C137.36 53.26 136.66 54.16 135.22 55L138.22 60.7L135.52 61.9L133.42 55.6C132.5 56.04 131.3 56.24 129.82 56.2C127.38 56.16 125.06 55.06 122.86 52.9C120.66 50.74 119.58 48.44 119.62 46C119.66 43.84 120.54 42.08 122.26 40.72C123.86 39.44 125.78 38.8 128.02 38.8H132.82V34H119.8ZM131.8 31L127.3 28C126.1 27.2 125 26.8 124 26.8C123.56 26.8 122.9 26.88 122.02 27.04C121.14 27.2 120.48 27.28 120.04 27.28C119.8 27.28 119.62 27.22 119.5 27.1L117.4 23.2C121.88 23.12 125.48 24.12 128.2 26.2L133.3 30.1L129.4 23.5C127.44 21.18 125.36 20.02 123.16 20.02C122.72 20.02 122.3 20.08 121.9 20.2L120.7 16.3C121.14 16.18 121.62 16.12 122.14 16.12C124.18 16.12 126.16 16.94 128.08 18.58C129.72 19.98 131.06 21.72 132.1 23.8L135.7 31H131.8ZM140.006 34L138.206 31H146.666C144.666 29 143.666 26.9 143.666 24.7C143.666 22.86 144.326 21.44 145.646 20.44C146.846 19.48 148.386 19 150.266 19C152.266 19 154.326 20.26 156.446 22.78C158.046 24.7 159.386 26.84 160.466 29.2L159.266 30.1C156.106 24.7 153.206 22 150.566 22C149.606 22 148.806 22.36 148.166 23.08C147.566 23.8 147.266 24.64 147.266 25.6C147.266 28 147.866 29.8 149.066 31H154.766L156.566 34H149.066V61.3L145.466 58.6V34H140.006ZM154.526 45.4C154.526 44.2 155.326 43.6 156.926 43.6H168.926V34H152.306L150.506 31H178.226L180.026 34H172.526V61.3L168.926 58.6V47.2H161.126V50.5C161.126 51.5 160.726 52 159.926 52C158.806 52 157.626 51.16 156.386 49.48C155.146 47.92 154.526 46.56 154.526 45.4ZM178.444 45.4C178.444 43.44 179.224 41.84 180.784 40.6C182.224 39.4 183.944 38.8 185.944 38.8C188.504 38.8 190.904 40.4 193.144 43.6V34H178.804L177.004 31H211.804L213.604 34H196.744V43.6C198.744 42.2 200.544 41.5 202.144 41.5C204.184 41.5 205.784 42.48 206.944 44.44C207.944 46.12 208.444 48.04 208.444 50.2C208.404 53.04 207.404 55.74 205.444 58.3L202.744 55.3C205.144 52.46 206.344 50.16 206.344 48.4C206.344 47.36 206.004 46.46 205.324 45.7C204.644 44.9 203.784 44.5 202.744 44.5C201.704 44.5 199.704 45.74 196.744 48.22V61.3L193.144 58.6V49.9C190.904 52.14 188.804 53.24 186.844 53.2C184.964 53.16 183.084 52.32 181.204 50.68C179.364 49.04 178.444 47.28 178.444 45.4ZM185.044 50.2C187.244 50.2 189.944 48.6 193.144 45.4C190.784 43.4 188.584 42.4 186.544 42.4C185.144 42.4 183.904 42.7 182.824 43.3C181.504 44.02 180.844 45.02 180.844 46.3C180.844 47.42 181.264 48.36 182.104 49.12C182.944 49.84 183.924 50.2 185.044 50.2Z" fill="#23D760"/>
<path fill-rule="evenodd" clip-rule="evenodd" d="M46.6247 6.65788C40.1755 2.95051 32.9192 0.722693 25.4228 0.148549C17.9264 -0.425594 10.393 0.669487 3.41133 3.34821C2.40414 3.7344 1.54082 4.401 0.932759 5.26199C0.324698 6.12299 -0.000196408 7.13886 8.90788e-08 8.17854V60.3282C8.90788e-08 63.8168 3.682 66.2051 7.06533 64.9081C12.7826 62.7164 18.9513 61.8215 25.0892 62.2932C31.2272 62.765 37.1682 64.5906 42.448 67.6274L47.7447 70.6687C48.1507 70.9057 48.5847 71.0041 49 70.9996C49.4438 71.0072 49.8807 70.894 50.26 70.6732L55.552 67.6274C60.8318 64.5906 66.7728 62.765 72.9108 62.2932C79.0487 61.8215 85.2174 62.7164 90.9347 64.9081C91.7164 65.2077 92.5628 65.3192 93.3998 65.2328C94.2369 65.1464 95.0391 64.8646 95.7363 64.4123C96.4335 63.9599 97.0043 63.3507 97.399 62.638C97.7936 61.9252 98 61.1306 98 60.3237V8.17854C98 6.04961 96.6467 4.13985 94.5887 3.34821C87.607 0.671542 80.0741 -0.421656 72.5785 0.154034C65.083 0.729725 57.8278 2.95871 51.38 6.66682L49 8.03542L46.6247 6.65788ZM52.5047 17.3472C52.5047 16.4576 52.1359 15.6044 51.4795 14.9753C50.8232 14.3462 49.9329 13.9928 49.0047 13.9928C48.0764 13.9928 47.1862 14.3462 46.5298 14.9753C45.8734 15.6044 45.5047 16.4576 45.5047 17.3472V59.8362C45.5047 60.7259 45.8734 61.5791 46.5298 62.2081C47.1862 62.8372 48.0764 63.1906 49.0047 63.1906C49.9329 63.1906 50.8232 62.8372 51.4795 62.2081C52.1359 61.5791 52.5047 60.7259 52.5047 59.8362V17.3472Z" fill="#4ECB71"/>
<path d="M6.19316 75.2786C10.781 74.4412 15.997 74 21.3082 74C26.6195 74 31.8355 74.4412 36.4233 75.2786L41.4402 76.1942C43.7346 76.6132 46.3435 76.8339 49 76.8339C51.6565 76.8339 54.2654 76.6132 56.5599 76.1942L61.5767 75.2786C66.1645 74.4412 71.3805 74 76.6918 74C82.003 74 87.219 74.4412 91.8069 75.2786L92.2822 75.3652C92.675 75.4369 93.0188 75.5321 93.2939 75.6454C93.5691 75.7587 93.7703 75.8878 93.886 76.0254C94.0017 76.1629 94.0297 76.3063 93.9683 76.4473C93.907 76.5883 93.7575 76.7241 93.5284 76.847C93.2993 76.9699 92.995 77.0774 92.6331 77.1636C92.2711 77.2497 91.8585 77.3126 91.4188 77.3488C90.9791 77.385 90.5209 77.3938 90.0704 77.3746C89.6198 77.3554 89.1858 77.3086 88.7931 77.2369L88.3177 77.1503C84.7889 76.5063 80.7769 76.1669 76.6918 76.1669C72.6066 76.1669 68.5947 76.5063 65.0658 77.1503L60.0444 78.0659C56.6921 78.6776 52.8808 79 49 79C45.1192 79 41.308 78.6776 37.9556 78.0659L32.9342 77.1503C29.4053 76.5063 25.3934 76.1669 21.3082 76.1669C17.2231 76.1669 13.2112 76.5063 9.68232 77.1503L9.20695 77.2369C8.41376 77.3817 7.46926 77.4219 6.58122 77.3488C5.69318 77.2757 4.93435 77.0952 4.47166 76.847C4.00896 76.5988 3.88031 76.3032 4.11401 76.0254C4.3477 75.7475 4.9246 75.51 5.71778 75.3652L6.19316 75.2786Z" fill="#4ECB71"/>
</svg>
