<svg width="245" height="196" viewBox="0 0 245 196" fill="none" xmlns="http://www.w3.org/2000/svg">
<g filter="url(#filter0_d_115_265)">
<ellipse cx="123.5" cy="94" rx="112.5" ry="93" fill="white" shape-rendering="crispEdges"/>
<path d="M123.5 187.5C185.815 187.5 236.5 145.723 236.5 94C236.5 42.2765 185.815 0.5 123.5 0.5C61.1851 0.5 10.5 42.2765 10.5 94C10.5 145.723 61.1851 187.5 123.5 187.5Z" stroke="black" stroke-opacity="0.1" shape-rendering="crispEdges"/>
</g>
<path d="M119.8 93L118 90H141.7L143.5 93H136.42V101.4H128.92C127.28 101.4 125.82 101.9 124.54 102.9C123.26 103.9 122.62 105.2 122.62 106.8C122.62 108.48 123.32 109.82 124.72 110.82C126 111.74 127.5 112.2 129.22 112.2C130.18 112.2 131.08 111.9 131.92 111.3C131.32 110.62 131.02 109.62 131.02 108.3C131.02 107.34 131.82 106.84 133.42 106.8C134.38 106.76 135.26 107.26 136.06 108.3C136.86 109.3 137.28 110.3 137.32 111.3C137.36 112.26 136.66 113.16 135.22 114L138.22 119.7L135.52 120.9L133.42 114.6C132.5 115.04 131.3 115.24 129.82 115.2C127.38 115.16 125.06 114.06 122.86 111.9C120.66 109.74 119.58 107.44 119.62 105C119.66 102.84 120.54 101.08 122.26 99.72C123.86 98.44 125.78 97.8 128.02 97.8H132.82V93H119.8ZM131.8 90L127.3 87C126.1 86.2 125 85.8 124 85.8C123.56 85.8 122.9 85.88 122.02 86.04C121.14 86.2 120.48 86.28 120.04 86.28C119.8 86.28 119.62 86.22 119.5 86.1L117.4 82.2C121.88 82.12 125.48 83.12 128.2 85.2L133.3 89.1L129.4 82.5C127.44 80.18 125.36 79.02 123.16 79.02C122.72 79.02 122.3 79.08 121.9 79.2L120.7 75.3C121.14 75.18 121.62 75.12 122.14 75.12C124.18 75.12 126.16 75.94 128.08 77.58C129.72 78.98 131.06 80.72 132.1 82.8L135.7 90H131.8ZM140.006 93L138.206 90H146.666C144.666 88 143.666 85.9 143.666 83.7C143.666 81.86 144.326 80.44 145.646 79.44C146.846 78.48 148.386 78 150.266 78C152.266 78 154.326 79.26 156.446 81.78C158.046 83.7 159.386 85.84 160.466 88.2L159.266 89.1C156.106 83.7 153.206 81 150.566 81C149.606 81 148.806 81.36 148.166 82.08C147.566 82.8 147.266 83.64 147.266 84.6C147.266 87 147.866 88.8 149.066 90H154.766L156.566 93H149.066V120.3L145.466 117.6V93H140.006ZM154.526 104.4C154.526 103.2 155.326 102.6 156.926 102.6H168.926V93H152.306L150.506 90H178.226L180.026 93H172.526V120.3L168.926 117.6V106.2H161.126V109.5C161.126 110.5 160.726 111 159.926 111C158.806 111 157.626 110.16 156.386 108.48C155.146 106.92 154.526 105.56 154.526 104.4ZM178.444 104.4C178.444 102.44 179.224 100.84 180.784 99.6C182.224 98.4 183.944 97.8 185.944 97.8C188.504 97.8 190.904 99.4 193.144 102.6V93H178.804L177.004 90H211.804L213.604 93H196.744V102.6C198.744 101.2 200.544 100.5 202.144 100.5C204.184 100.5 205.784 101.48 206.944 103.44C207.944 105.12 208.444 107.04 208.444 109.2C208.404 112.04 207.404 114.74 205.444 117.3L202.744 114.3C205.144 111.46 206.344 109.16 206.344 107.4C206.344 106.36 206.004 105.46 205.324 104.7C204.644 103.9 203.784 103.5 202.744 103.5C201.704 103.5 199.704 104.74 196.744 107.22V120.3L193.144 117.6V108.9C190.904 111.14 188.804 112.24 186.844 112.2C184.964 112.16 183.084 111.32 181.204 109.68C179.364 108.04 178.444 106.28 178.444 104.4ZM185.044 109.2C187.244 109.2 189.944 107.6 193.144 104.4C190.784 102.4 188.584 101.4 186.544 101.4C185.144 101.4 183.904 101.7 182.824 102.3C181.504 103.02 180.844 104.02 180.844 105.3C180.844 106.42 181.264 107.36 182.104 108.12C182.944 108.84 183.924 109.2 185.044 109.2Z" fill="#23D760"/>
<path fill-rule="evenodd" clip-rule="evenodd" d="M46.6247 65.6579C40.1755 61.9505 32.9192 59.7227 25.4228 59.1485C17.9264 58.5744 10.393 59.6695 3.41133 62.3482C2.40414 62.7344 1.54082 63.401 0.932759 64.262C0.324698 65.123 -0.000196408 66.1389 8.90788e-08 67.1785V119.328C8.90788e-08 122.817 3.682 125.205 7.06533 123.908C12.7826 121.716 18.9513 120.822 25.0892 121.293C31.2272 121.765 37.1682 123.591 42.448 126.627L47.7447 129.669C48.1507 129.906 48.5847 130.004 49 130C49.4438 130.007 49.8807 129.894 50.26 129.673L55.552 126.627C60.8318 123.591 66.7728 121.765 72.9108 121.293C79.0487 120.822 85.2174 121.716 90.9347 123.908C91.7164 124.208 92.5628 124.319 93.3998 124.233C94.2369 124.146 95.0391 123.865 95.7363 123.412C96.4335 122.96 97.0043 122.351 97.399 121.638C97.7936 120.925 98 120.131 98 119.324V67.1785C98 65.0496 96.6467 63.1398 94.5887 62.3482C87.607 59.6715 80.0741 58.5783 72.5785 59.154C65.083 59.7297 57.8278 61.9587 51.38 65.6668L49 67.0354L46.6247 65.6579ZM52.5047 76.3472C52.5047 75.4576 52.1359 74.6044 51.4795 73.9753C50.8232 73.3462 49.9329 72.9928 49.0047 72.9928C48.0764 72.9928 47.1862 73.3462 46.5298 73.9753C45.8734 74.6044 45.5047 75.4576 45.5047 76.3472V118.836C45.5047 119.726 45.8734 120.579 46.5298 121.208C47.1862 121.837 48.0764 122.191 49.0047 122.191C49.9329 122.191 50.8232 121.837 51.4795 121.208C52.1359 120.579 52.5047 119.726 52.5047 118.836V76.3472Z" fill="#4ECB71"/>
<defs>
<filter id="filter0_d_115_265" x="10" y="0" width="235" height="196" filterUnits="userSpaceOnUse" color-interpolation-filters="sRGB">
<feFlood flood-opacity="0" result="BackgroundImageFix"/>
<feColorMatrix in="SourceAlpha" type="matrix" values="0 0 0 0 0 0 0 0 0 0 0 0 0 0 0 0 0 0 127 0" result="hardAlpha"/>
<feOffset dx="4" dy="4"/>
<feGaussianBlur stdDeviation="2"/>
<feComposite in2="hardAlpha" operator="out"/>
<feColorMatrix type="matrix" values="0 0 0 0 0 0 0 0 0 0 0 0 0 0 0 0 0 0 0.25 0"/>
<feBlend mode="normal" in2="BackgroundImageFix" result="effect1_dropShadow_115_265"/>
<feBlend mode="normal" in="SourceGraphic" in2="effect1_dropShadow_115_265" result="shape"/>
</filter>
</defs>
</svg>
