<svg width="35" height="35" viewBox="0 0 35 35" fill="none" xmlns="http://www.w3.org/2000/svg">
<path d="M23.8 30C25.3464 30 26.6 28.8807 26.6 27.5C26.6 26.1193 25.3464 25 23.8 25C22.2536 25 21 26.1193 21 27.5C21 28.8807 22.2536 30 23.8 30Z" fill="white"/>
<path d="M34.6879 26.8488C33.8229 24.8811 32.3302 23.1834 30.3948 21.966C28.4594 20.7485 26.1664 20.065 23.8001 20C21.4338 20.065 19.1408 20.7485 17.2054 21.966C15.27 23.1834 13.7773 24.8811 12.9123 26.8488L12.6001 27.5L12.9123 28.1525C13.7775 30.1199 15.2703 31.8174 17.2057 33.0346C19.1411 34.2517 21.4339 34.9351 23.8001 35C26.1663 34.9351 28.4591 34.2517 30.3945 33.0346C32.3298 31.8174 33.8227 30.1199 34.6879 28.1525L35.0001 27.5L34.6879 26.8488ZM23.8001 32.5C22.6925 32.5 21.6098 32.2068 20.6889 31.6573C19.768 31.1079 19.0502 30.327 18.6264 29.4134C18.2025 28.4998 18.0916 27.4945 18.3077 26.5245C18.5238 25.5546 19.0571 24.6637 19.8403 23.9645C20.6235 23.2652 21.6213 22.789 22.7076 22.5961C23.7939 22.4031 24.9199 22.5022 25.9431 22.8806C26.9664 23.259 27.841 23.8999 28.4563 24.7221C29.0717 25.5444 29.4001 26.5111 29.4001 27.5C29.3982 28.8256 28.8077 30.0964 27.7578 31.0337C26.708 31.971 25.2847 32.4983 23.8001 32.5Z" fill="white"/>
<path d="M9.8 32.5H2.8V6.25H7V10H23.8V6.25H28V17.5H30.8V6.25C30.8 5.58696 30.505 4.95107 29.9799 4.48223C29.4548 4.01339 28.7426 3.75 28 3.75H23.8V2.5C23.8 1.83696 23.505 1.20107 22.9799 0.732233C22.4548 0.263392 21.7426 0 21 0H9.8C9.05739 0 8.3452 0.263392 7.8201 0.732233C7.295 1.20107 7 1.83696 7 2.5V3.75H2.8C2.05739 3.75 1.3452 4.01339 0.820101 4.48223C0.294999 4.95107 0 5.58696 0 6.25V32.5C0 33.163 0.294999 33.7989 0.820101 34.2678C1.3452 34.7366 2.05739 35 2.8 35H9.8V32.5ZM9.8 2.5H21V7.5H9.8V2.5Z" fill="white"/>
</svg>
